<svg width="160" height="160" viewBox="0 0 160 160" fill="none" xmlns="http://www.w3.org/2000/svg" role="img" aria-labelledby="title desc">
  <title id="title">DutchMate book bubble mark</title>
  <desc id="desc">A simple open book with a translation bubble.</desc>
  <rect x="16" y="16" width="128" height="128" rx="26" fill="#000000"/>
  <path d="M40 66c13-8 27-11 40-8v61c-13-5-27-5-40 0V66Z" fill="#ffffff"/>
  <path d="M80 58c13-3 27 0 40 8v53c-13-5-27-5-40 0V58Z" fill="#ffffff"/>
  <path d="M52 81h15M52 96h17M93 81h15M91 96h17" stroke="#000000" stroke-width="5" stroke-linecap="round"/>
  <path d="M50 34h60c9 0 16 7 16 16v10c0 9-7 16-16 16H91L80 91 69 76H50c-9 0-16-7-16-16V50c0-9 7-16 16-16Z" fill="#ff6f00"/>
  <path d="M58 55h27M96 47l8 8-8 8" stroke="#ffffff" stroke-width="7" stroke-linecap="round" stroke-linejoin="round"/>
</svg>
